<?xml version="1.0" encoding="UTF-8"?>
<svg xmlns="http://www.w3.org/2000/svg" xmlns:xlink="http://www.w3.org/1999/xlink" width="200px" height="37px" viewBox="0 0 201 37" version="1.1">
<g id="surface1">
<path style=" stroke:none;fill-rule:nonzero;fill:rgb(90.980392%,0%,43.921569%);fill-opacity:1;" d="M 92.992188 30.640625 C 128.632812 30.640625 164.277344 30.640625 201 30.640625 C 201 32.546875 201 34.457031 201 36.421875 C 165.355469 36.421875 129.714844 36.421875 92.992188 36.421875 C 92.992188 34.515625 92.992188 32.605469 92.992188 30.640625 Z M 92.992188 30.640625 "/>
<path style=" stroke:none;fill-rule:nonzero;fill:rgb(80%,80%,80%);fill-opacity:1;" d="M 92.992188 0.578125 C 96.742188 0.507812 96.742188 0.507812 100.570312 0.433594 C 101.746094 0.402344 101.746094 0.402344 102.945312 0.371094 C 109.324219 0.3125 109.324219 0.3125 112.050781 2.890625 C 114.097656 5.347656 114.027344 7.332031 113.785156 10.40625 C 113.207031 11.851562 113.207031 11.851562 112.628906 12.71875 C 112.25 12.71875 111.867188 12.71875 111.472656 12.71875 C 111.472656 13.101562 111.472656 13.480469 111.472656 13.875 C 111.832031 14.019531 112.1875 14.160156 112.558594 14.308594 C 114.039062 15.179688 114.304688 15.769531 114.941406 17.34375 C 115.386719 20.535156 115.167969 23.378906 113.207031 26.015625 C 109.074219 28.753906 105.34375 28.605469 100.5 28.472656 C 98.023438 28.425781 95.542969 28.378906 92.992188 28.328125 C 92.992188 19.171875 92.992188 10.011719 92.992188 0.578125 Z M 98.765625 5.78125 C 98.765625 7.5 98.765625 9.214844 98.765625 10.984375 C 100.089844 11.03125 101.414062 11.066406 102.738281 11.09375 C 103.476562 11.113281 104.210938 11.132812 104.972656 11.152344 C 105.59375 11.097656 106.214844 11.042969 106.851562 10.984375 C 108.183594 9.382812 108.183594 9.382812 107.863281 7.734375 C 107.722656 7.28125 107.578125 6.828125 107.429688 6.359375 C 105.765625 5.527344 104.300781 5.726562 102.449219 5.746094 C 101.417969 5.753906 101.417969 5.753906 100.367188 5.761719 C 99.578125 5.769531 99.578125 5.769531 98.765625 5.78125 Z M 98.765625 16.765625 C 98.765625 18.671875 98.765625 20.582031 98.765625 22.546875 C 100.1875 22.578125 101.605469 22.601562 103.027344 22.621094 C 103.429688 22.628906 103.835938 22.636719 104.25 22.648438 C 105.3125 22.660156 106.371094 22.605469 107.429688 22.546875 C 108.769531 21.457031 108.769531 21.457031 108.730469 19.65625 C 108.769531 17.855469 108.769531 17.855469 107.429688 16.765625 C 105.941406 16.683594 104.515625 16.65625 103.027344 16.695312 C 102.617188 16.699219 102.210938 16.703125 101.789062 16.710938 C 100.78125 16.722656 99.773438 16.742188 98.765625 16.765625 Z M 98.765625 16.765625 "/>
<path style=" stroke:none;fill-rule:nonzero;fill:rgb(80%,80%,80%);fill-opacity:1;" d="M 46.605469 14.273438 C 49.53125 14.285156 50.921875 14.898438 53.136719 16.765625 C 53.386719 16.492188 53.636719 16.21875 53.894531 15.933594 C 55.890625 14.085938 58.347656 14.226562 60.929688 14.25 C 63.320312 14.585938 64.234375 15.570312 65.84375 17.34375 C 67.179688 19.386719 67.132812 21.140625 67.113281 23.550781 C 67.109375 24.296875 67.105469 25.046875 67.101562 25.820312 C 67.09375 26.605469 67.082031 27.394531 67.070312 28.183594 C 67.066406 28.980469 67.0625 29.777344 67.054688 30.574219 C 67.042969 32.523438 67.023438 34.472656 67 36.421875 C 65.09375 36.421875 63.1875 36.421875 61.222656 36.421875 C 61.214844 35.992188 61.207031 35.5625 61.199219 35.121094 C 61.15625 33.183594 61.101562 31.242188 61.042969 29.304688 C 61.023438 28.292969 61.023438 28.292969 61.003906 27.257812 C 60.984375 26.613281 60.964844 25.964844 60.941406 25.300781 C 60.925781 24.703125 60.910156 24.105469 60.894531 23.492188 C 60.761719 21.960938 60.761719 21.960938 59.875 20.898438 C 58.429688 19.902344 57.152344 20.121094 55.449219 20.234375 C 54.902344 22.109375 54.761719 23.859375 54.6875 25.808594 C 54.652344 26.734375 54.652344 26.734375 54.613281 27.683594 C 54.59375 28.324219 54.570312 28.96875 54.546875 29.628906 C 54.507812 30.605469 54.507812 30.605469 54.46875 31.601562 C 54.410156 33.210938 54.351562 34.816406 54.292969 36.421875 C 52.386719 36.421875 50.480469 36.421875 48.515625 36.421875 C 48.507812 35.992188 48.5 35.5625 48.492188 35.121094 C 48.449219 33.183594 48.394531 31.242188 48.335938 29.304688 C 48.324219 28.628906 48.3125 27.953125 48.296875 27.257812 C 48.277344 26.613281 48.257812 25.964844 48.234375 25.300781 C 48.21875 24.703125 48.203125 24.105469 48.1875 23.492188 C 48.054688 21.957031 48.054688 21.957031 47.148438 20.890625 C 46.195312 20.082031 46.195312 20.082031 44.726562 20.304688 C 43.128906 20.722656 43.128906 20.722656 42.164062 22.546875 C 41.953125 24.058594 41.953125 24.058594 41.925781 25.75 C 41.890625 26.683594 41.890625 26.683594 41.855469 27.632812 C 41.832031 28.601562 41.832031 28.601562 41.804688 29.59375 C 41.769531 30.574219 41.769531 30.574219 41.734375 31.574219 C 41.679688 33.191406 41.632812 34.804688 41.585938 36.421875 C 40.730469 36.4375 39.878906 36.449219 39.023438 36.457031 C 38.546875 36.464844 38.070312 36.472656 37.582031 36.476562 C 36.386719 36.421875 36.386719 36.421875 35.808594 35.84375 C 35.757812 34.300781 35.742188 32.777344 35.753906 31.234375 C 35.753906 30.773438 35.753906 30.3125 35.757812 29.835938 C 35.757812 28.359375 35.765625 26.878906 35.773438 25.402344 C 35.777344 24.402344 35.78125 23.402344 35.78125 22.402344 C 35.789062 19.945312 35.796875 17.488281 35.808594 15.03125 C 38.3125 15.03125 40.816406 15.03125 43.320312 15.03125 C 44.261719 14.089844 45.308594 14.308594 46.605469 14.273438 Z M 46.605469 14.273438 "/>
<path style=" stroke:none;fill-rule:nonzero;fill:rgb(81.176471%,81.176471%,81.176471%);fill-opacity:1;" d="M 140.351562 0.578125 C 142.257812 0.578125 144.164062 0.578125 146.128906 0.578125 C 146.128906 2.675781 146.128906 4.773438 146.128906 6.9375 C 148.605469 6.9375 151.085938 6.9375 153.636719 6.9375 C 153.636719 4.839844 153.636719 2.742188 153.636719 0.578125 C 155.542969 0.578125 157.449219 0.578125 159.414062 0.578125 C 159.414062 2.675781 159.414062 4.773438 159.414062 6.9375 C 160.9375 6.9375 162.464844 6.9375 164.035156 6.9375 C 164.035156 8.65625 164.035156 10.371094 164.035156 12.140625 C 162.507812 12.140625 160.984375 12.140625 159.414062 12.140625 C 159.699219 17.003906 159.699219 17.003906 159.992188 21.96875 C 161.324219 22.351562 162.660156 22.730469 164.035156 23.125 C 164.035156 24.84375 164.035156 26.558594 164.035156 28.328125 C 161.175781 29.027344 159.269531 28.816406 156.527344 27.75 C 154.890625 26.414062 154.308594 25.71875 153.636719 23.703125 C 153.589844 22.804688 153.574219 21.902344 153.582031 21.003906 C 153.582031 20.488281 153.585938 19.972656 153.585938 19.441406 C 153.59375 18.902344 153.597656 18.367188 153.601562 17.8125 C 153.605469 17.269531 153.605469 16.726562 153.609375 16.167969 C 153.617188 14.824219 153.625 13.480469 153.636719 12.140625 C 151.160156 12.140625 148.683594 12.140625 146.128906 12.140625 C 146.210938 13.660156 146.296875 15.175781 146.382812 16.695312 C 146.40625 17.125 146.425781 17.554688 146.449219 18 C 146.542969 20.351562 146.542969 20.351562 147.285156 22.546875 C 149.035156 22.925781 149.035156 22.925781 150.75 23.125 C 150.75 24.84375 150.75 26.558594 150.75 28.328125 C 148.09375 29.058594 146.316406 28.785156 143.777344 27.96875 C 142.011719 26.707031 141.082031 25.125 140.351562 23.125 C 140.09375 21.195312 140.132812 19.320312 140.210938 17.378906 C 140.21875 16.875 140.230469 16.367188 140.242188 15.847656 C 140.269531 14.613281 140.308594 13.375 140.351562 12.140625 C 139.402344 12.140625 138.449219 12.140625 137.464844 12.140625 C 137.464844 10.421875 137.464844 8.707031 137.464844 6.9375 C 138.417969 6.9375 139.371094 6.9375 140.351562 6.9375 C 140.351562 4.839844 140.351562 2.742188 140.351562 0.578125 Z M 140.351562 0.578125 "/>
<path style=" stroke:none;fill-rule:nonzero;fill:rgb(80%,80%,80%);fill-opacity:1;" d="M 9.242188 8.09375 C 11.339844 8.09375 13.433594 8.09375 15.59375 8.09375 C 17.773438 13.203125 19.761719 18.359375 21.660156 23.578125 C 22.132812 24.875 22.613281 26.167969 23.089844 27.464844 C 23.394531 28.292969 23.695312 29.125 24 29.953125 C 24.140625 30.335938 24.285156 30.722656 24.429688 31.117188 C 25.121094 33.03125 25.414062 34.351562 25.414062 36.421875 C 23.507812 36.421875 21.601562 36.421875 19.636719 36.421875 C 18.875 34.703125 18.113281 32.988281 17.328125 31.21875 C 14.085938 31.027344 10.847656 30.835938 7.507812 30.640625 C 6.9375 32.546875 6.363281 34.457031 5.777344 36.421875 C 3.871094 36.421875 1.964844 36.421875 0 36.421875 C 0.3125 32.734375 1.226562 29.613281 2.527344 26.160156 C 2.71875 25.640625 2.914062 25.121094 3.109375 24.585938 C 3.71875 22.941406 4.332031 21.296875 4.945312 19.65625 C 5.359375 18.535156 5.777344 17.414062 6.191406 16.292969 C 7.203125 13.558594 8.21875 10.824219 9.242188 8.09375 Z M 12.128906 16.1875 C 11.175781 19.238281 10.222656 22.292969 9.242188 25.4375 C 11.339844 25.4375 13.433594 25.4375 15.59375 25.4375 C 15.238281 24.109375 14.875 22.785156 14.511719 21.460938 C 14.410156 21.085938 14.3125 20.710938 14.207031 20.324219 C 13.574219 18.035156 13.574219 18.035156 12.128906 16.1875 Z M 12.128906 16.1875 "/>
<path style=" stroke:none;fill-rule:nonzero;fill:rgb(78.823529%,78.823529%,78.823529%);fill-opacity:1;" d="M 181.464844 7.953125 C 184.527344 10.046875 185.492188 11.902344 186.199219 15.464844 C 186.65625 18.304688 186.65625 18.304688 185.984375 19.65625 C 181.027344 19.65625 176.070312 19.65625 170.964844 19.65625 C 172.859375 22.523438 172.859375 22.523438 174.683594 23.089844 C 176.421875 23.132812 177.503906 22.742188 179.050781 21.96875 C 179.242188 21.777344 179.433594 21.585938 179.628906 21.390625 C 180.699219 21.347656 181.769531 21.34375 182.84375 21.355469 C 183.425781 21.359375 184.011719 21.363281 184.613281 21.371094 C 185.066406 21.378906 185.515625 21.382812 185.984375 21.390625 C 185.265625 24.730469 183.578125 26.515625 180.785156 28.328125 C 177.28125 29.476562 173.695312 29.214844 170.324219 27.816406 C 167.875 26.371094 166.347656 24.15625 164.972656 21.714844 C 164.054688 17.949219 164.371094 14.339844 166.34375 10.984375 C 170.523438 6.316406 175.863281 4.769531 181.464844 7.953125 Z M 172.121094 13.296875 C 171.929688 13.871094 171.738281 14.441406 171.542969 15.03125 C 174.210938 15.03125 176.878906 15.03125 179.628906 15.03125 C 178.675781 12.648438 178.675781 12.648438 176.742188 11.5625 C 174.648438 11.5625 173.808594 12.097656 172.121094 13.296875 Z M 172.121094 13.296875 "/>
<path style=" stroke:none;fill-rule:nonzero;fill:rgb(80%,80%,80%);fill-opacity:1;" d="M 79.5625 14.308594 C 80.261719 14.292969 80.960938 14.277344 81.683594 14.261719 C 83.976562 14.472656 85.296875 14.925781 87.214844 16.1875 C 88.960938 18.5 89.183594 20.289062 89.242188 23.15625 C 89.253906 23.535156 89.265625 23.917969 89.273438 24.308594 C 89.304688 25.515625 89.324219 26.722656 89.34375 27.929688 C 89.363281 28.753906 89.382812 29.574219 89.40625 30.398438 C 89.453125 32.40625 89.492188 34.414062 89.527344 36.421875 C 88.707031 36.453125 87.890625 36.476562 87.070312 36.492188 C 86.617188 36.507812 86.160156 36.519531 85.691406 36.535156 C 84.207031 36.410156 83.292969 36.007812 82.015625 35.265625 C 81.445312 35.648438 80.875 36.027344 80.285156 36.421875 C 77.058594 36.824219 74.222656 36.828125 71.257812 35.445312 C 69.777344 34 69.15625 33.242188 68.734375 31.21875 C 68.777344 28.828125 68.996094 27.574219 70.472656 25.675781 C 72.667969 23.902344 74.523438 23.535156 77.253906 23.054688 C 78.878906 22.753906 80.417969 22.40625 82.015625 21.96875 C 82.207031 21.394531 82.398438 20.824219 82.59375 20.234375 C 80.273438 19.75 78.542969 19.625 76.242188 20.234375 C 76.242188 20.808594 76.242188 21.378906 76.242188 21.96875 C 74.144531 21.96875 72.046875 21.96875 69.886719 21.96875 C 69.933594 20.128906 70.101562 18.898438 71.363281 17.519531 C 74.203125 15.082031 75.75 14.355469 79.5625 14.308594 Z M 78.769531 27.460938 C 78.1875 27.621094 77.609375 27.78125 77.011719 27.949219 C 76.566406 28.074219 76.121094 28.199219 75.664062 28.328125 C 75.324219 29.453125 75.324219 29.453125 75.085938 30.640625 C 75.992188 31.546875 76.902344 31.359375 78.15625 31.398438 C 80.082031 31.378906 80.707031 31.324219 82.34375 30.207031 C 83.378906 28.839844 83.378906 28.839844 83.171875 26.59375 C 81.609375 26.59375 80.273438 27.039062 78.769531 27.460938 Z M 78.769531 27.460938 "/>
<path style=" stroke:none;fill-rule:nonzero;fill:rgb(80%,80%,80%);fill-opacity:1;" d="M 134.433594 9.105469 C 136.121094 10.792969 136.753906 12.171875 137.464844 14.453125 C 137.464844 16.171875 137.464844 17.886719 137.464844 19.65625 C 132.511719 19.65625 127.554688 19.65625 122.449219 19.65625 C 123.359375 22.113281 123.359375 22.113281 125.515625 22.765625 C 127.742188 23.140625 128.601562 23.050781 130.535156 21.96875 C 130.726562 21.777344 130.914062 21.585938 131.113281 21.390625 C 132.085938 21.347656 133.0625 21.34375 134.035156 21.355469 C 134.566406 21.359375 135.097656 21.363281 135.644531 21.371094 C 136.054688 21.378906 136.464844 21.382812 136.886719 21.390625 C 136.773438 23.832031 136.480469 24.6875 134.722656 26.449219 C 131.421875 28.734375 128.742188 29.433594 124.757812 28.90625 C 121.183594 27.820312 118.734375 25.625 116.671875 22.546875 C 115.59375 19.3125 115.773438 16.105469 116.746094 12.863281 C 118.363281 10.054688 120.03125 8.105469 122.988281 6.71875 C 127.515625 5.796875 130.5625 6.640625 134.433594 9.105469 Z M 123.027344 13.296875 C 122.835938 13.871094 122.644531 14.441406 122.449219 15.03125 C 125.308594 15.03125 128.167969 15.03125 131.113281 15.03125 C 129.757812 12.074219 129.757812 12.074219 127.71875 11.5625 C 125.585938 11.5625 124.679688 11.972656 123.027344 13.296875 Z M 123.027344 13.296875 "/>
<path style=" stroke:none;fill-rule:nonzero;fill:rgb(78.823529%,78.823529%,78.823529%);fill-opacity:1;" d="M 26.570312 6.9375 C 28.664062 6.9375 30.761719 6.9375 32.921875 6.9375 C 32.9375 11.042969 32.945312 15.148438 32.953125 19.253906 C 32.957031 20.652344 32.960938 22.050781 32.964844 23.449219 C 32.972656 25.453125 32.976562 27.460938 32.980469 29.464844 C 32.980469 30.09375 32.984375 30.722656 32.988281 31.371094 C 32.988281 31.949219 32.988281 32.527344 32.988281 33.125 C 32.988281 33.636719 32.992188 34.148438 32.992188 34.675781 C 32.921875 35.84375 32.921875 35.84375 32.34375 36.421875 C 31.480469 36.476562 30.613281 36.496094 29.746094 36.492188 C 29.273438 36.496094 28.804688 36.496094 28.320312 36.5 C 27.148438 36.421875 27.148438 36.421875 26.570312 35.84375 C 26.515625 34.9375 26.5 34.03125 26.503906 33.125 C 26.503906 32.546875 26.503906 31.96875 26.503906 31.371094 C 26.507812 30.742188 26.507812 30.113281 26.511719 29.464844 C 26.511719 28.824219 26.515625 28.183594 26.515625 27.523438 C 26.519531 25.464844 26.527344 23.410156 26.53125 21.355469 C 26.535156 19.964844 26.539062 18.574219 26.539062 17.183594 C 26.546875 13.769531 26.558594 10.351562 26.570312 6.9375 Z M 26.570312 6.9375 "/>
<path style=" stroke:none;fill-rule:nonzero;fill:rgb(81.176471%,81.176471%,81.176471%);fill-opacity:1;" d="M 188.292969 6.9375 C 190.199219 6.9375 192.105469 6.9375 194.070312 6.9375 C 194.257812 7.511719 194.449219 8.082031 194.648438 8.671875 C 194.945312 8.386719 195.242188 8.097656 195.550781 7.804688 C 197.421875 6.652344 198.839844 6.8125 201 6.9375 C 201 8.84375 201 10.753906 201 12.71875 C 199.664062 12.980469 198.332031 13.246094 196.996094 13.507812 C 196.601562 13.628906 196.207031 13.75 195.800781 13.875 C 195.074219 15.328125 195.105469 16.425781 195.042969 18.054688 C 195.015625 18.648438 194.992188 19.246094 194.96875 19.859375 C 194.933594 20.796875 194.933594 20.796875 194.898438 21.75 C 194.875 22.382812 194.847656 23.011719 194.824219 23.65625 C 194.761719 25.214844 194.703125 26.769531 194.648438 28.328125 C 192.550781 28.328125 190.453125 28.328125 188.292969 28.328125 C 188.292969 21.269531 188.292969 14.210938 188.292969 6.9375 Z M 188.292969 6.9375 "/>
</g>
</svg>
