<?xml version="1.0" encoding="UTF-8"?>
<svg version="1.1" xmlns="http://www.w3.org/2000/svg" width="348" height="64">
<path d="M0 0 C61.71 0 123.42 0 187 0 C187 3.3 187 6.6 187 10 C125.29 10 63.58 10 0 10 C0 6.7 0 3.4 0 0 Z " fill="#E70034" transform="translate(161,53)"/>
<path d="M0 0 C6.496875 -0.12375 6.496875 -0.12375 13.125 -0.25 C15.15744873 -0.30462402 15.15744873 -0.30462402 17.23095703 -0.36035156 C28.27512304 -0.46238379 28.27512304 -0.46238379 33 4 C36.54218334 8.25062001 36.42184328 11.68477473 36 17 C35 19.5 35 19.5 34 21 C33.34 21 32.68 21 32 21 C32 21.66 32 22.32 32 23 C32.61875 23.2475 33.2375 23.495 33.875 23.75 C36.44001035 25.25882962 36.89885091 26.27380709 38 29 C38.77276371 34.51974078 38.39470566 39.43836427 35 44 C27.844821 48.7385861 21.38653405 48.47846633 13 48.25 C8.71 48.1675 4.42 48.085 0 48 C0 32.16 0 16.32 0 0 Z M10 9 C10 11.97 10 14.94 10 18 C12.29109597 18.08075665 14.58299267 18.13907731 16.875 18.1875 C18.15117187 18.22230469 19.42734375 18.25710937 20.7421875 18.29296875 C21.81726563 18.19628906 22.89234375 18.09960938 24 18 C26.30075262 15.23254916 26.30075262 15.23254916 25.75 12.375 C25.5025 11.59125 25.255 10.8075 25 10 C22.11584117 8.55792059 19.58278472 8.90605113 16.375 8.9375 C14.59222656 8.95103516 14.59222656 8.95103516 12.7734375 8.96484375 C11.40058594 8.98224609 11.40058594 8.98224609 10 9 Z M10 28 C10 31.3 10 34.6 10 38 C12.45862401 38.05383848 14.9160755 38.09359038 17.375 38.125 C18.07367188 38.14175781 18.77234375 38.15851562 19.4921875 38.17578125 C21.32897486 38.19344267 23.16601963 38.10303261 25 38 C27.31563087 36.11499729 27.31563087 36.11499729 27.25 33 C27.31563087 29.88500271 27.31563087 29.88500271 25 28 C22.41935871 27.85502015 19.95056116 27.81322455 17.375 27.875 C16.66859375 27.88402344 15.9621875 27.89304687 15.234375 27.90234375 C13.48943902 27.92592397 11.74467705 27.96179539 10 28 Z " fill="#010000" transform="translate(161,1)"/>
<path d="M0 0 C5.06692898 0.02180888 7.4783069 1.08370581 11.3125 4.3125 C11.745625 3.838125 12.17875 3.36375 12.625 2.875 C16.08058362 -0.32461446 20.33566669 -0.07817299 24.80078125 -0.0390625 C28.94197086 0.54057524 30.5245757 2.24578327 33.3125 5.3125 C35.62335513 8.84930175 35.54435305 11.88125175 35.5078125 16.046875 C35.50136719 17.34238281 35.49492188 18.63789062 35.48828125 19.97265625 C35.47157193 21.33594019 35.45464206 22.69922144 35.4375 24.0625 C35.4274634 25.44139985 35.41833873 26.82030665 35.41015625 28.19921875 C35.38658093 31.57048882 35.3536727 34.94140636 35.3125 38.3125 C32.0125 38.3125 28.7125 38.3125 25.3125 38.3125 C25.29791748 37.57088623 25.28333496 36.82927246 25.26831055 36.06518555 C25.19390543 32.70959369 25.09721994 29.35500506 25 26 C24.96616211 24.24913086 24.96616211 24.24913086 24.93164062 22.46289062 C24.89619141 21.34462891 24.86074219 20.22636719 24.82421875 19.07421875 C24.79803467 18.04256592 24.77185059 17.01091309 24.74487305 15.94799805 C24.5113478 13.29876808 24.5113478 13.29876808 22.97973633 11.46411133 C20.47747219 9.73572065 18.26538157 10.11564123 15.3125 10.3125 C14.36783244 13.55328125 14.12151172 16.58475655 13.99609375 19.953125 C13.93325195 21.55800781 13.93325195 21.55800781 13.86914062 23.1953125 C13.82982422 24.30648437 13.79050781 25.41765625 13.75 26.5625 C13.68522461 28.25246094 13.68522461 28.25246094 13.61914062 29.9765625 C13.51317985 32.75508954 13.41110858 35.53370391 13.3125 38.3125 C10.0125 38.3125 6.7125 38.3125 3.3125 38.3125 C3.29791748 37.57088623 3.28333496 36.82927246 3.26831055 36.06518555 C3.19390543 32.70959369 3.09721994 29.35500506 3 26 C2.97744141 24.83275391 2.95488281 23.66550781 2.93164062 22.46289062 C2.89619141 21.34462891 2.86074219 20.22636719 2.82421875 19.07421875 C2.79803467 18.04256592 2.77185059 17.01091309 2.74487305 15.94799805 C2.51344817 13.29010063 2.51344817 13.29010063 0.94067383 11.44458008 C-0.70845001 10.05229628 -0.70845001 10.05229628 -3.25 10.4375 C-6.0136611 11.15639168 -6.0136611 11.15639168 -7.6875 14.3125 C-8.05499389 16.92539494 -8.05499389 16.92539494 -8.1015625 19.85546875 C-8.15957031 21.46518555 -8.15957031 21.46518555 -8.21875 23.10742188 C-8.26515625 24.78674805 -8.26515625 24.78674805 -8.3125 26.5 C-8.37050781 28.19672852 -8.37050781 28.19672852 -8.4296875 29.92773438 C-8.52402533 32.7224925 -8.60961652 35.51724278 -8.6875 38.3125 C-10.16656892 38.33939216 -11.64577483 38.35884621 -13.125 38.375 C-13.94871094 38.38660156 -14.77242188 38.39820313 -15.62109375 38.41015625 C-17.6875 38.3125 -17.6875 38.3125 -18.6875 37.3125 C-18.77605161 34.6462397 -18.80274673 32.00602886 -18.78515625 29.33984375 C-18.7837413 28.54220108 -18.78232635 27.74455841 -18.78086853 26.92274475 C-18.77525316 24.36512565 -18.76269812 21.80759282 -18.75 19.25 C-18.74498698 17.52018355 -18.74042373 15.79036574 -18.73632812 14.06054688 C-18.72527875 9.81116447 -18.70800386 5.56184688 -18.6875 1.3125 C-14.35416667 1.3125 -10.02083333 1.3125 -5.6875 1.3125 C-4.05640633 -0.31859367 -2.24562778 0.06377717 0 0 Z " fill="#040000" transform="translate(80.6875,24.6875)"/>
<path d="M0 0 C3.3 0 6.6 0 10 0 C10 3.63 10 7.26 10 11 C14.29 11 18.58 11 23 11 C23 7.37 23 3.74 23 0 C26.3 0 29.6 0 33 0 C33 3.63 33 7.26 33 11 C35.64 11 38.28 11 41 11 C41 13.97 41 16.94 41 20 C38.36 20 35.72 20 33 20 C33.495 28.415 33.495 28.415 34 37 C36.31 37.66 38.62 38.32 41 39 C41 41.97 41 44.94 41 48 C36.05258906 49.20668559 32.74758303 48.84628229 28 47 C25.16746734 44.68924967 24.16162133 43.484864 23 40 C22.91893314 38.44578271 22.89243102 36.88832973 22.90234375 35.33203125 C22.90556641 34.43935547 22.90878906 33.54667969 22.91210938 32.62695312 C22.92048828 31.69818359 22.92886719 30.76941406 22.9375 29.8125 C22.94201172 28.87212891 22.94652344 27.93175781 22.95117188 26.96289062 C22.96295355 24.64189992 22.98088886 22.32094193 23 20 C18.71 20 14.42 20 10 20 C10.14053872 22.62538284 10.28718947 25.25017427 10.4375 27.875 C10.47681641 28.62136719 10.51613281 29.36773438 10.55664062 30.13671875 C10.71573624 34.19986864 10.71573624 34.19986864 12 38 C15.02934491 38.65772428 15.02934491 38.65772428 18 39 C18 41.97 18 44.94 18 48 C13.40205404 49.26443514 10.32635946 48.78758537 5.9296875 47.375 C2.87114281 45.19563212 1.26393866 42.45924262 0 39 C-0.44688573 35.66394603 -0.38278019 32.42030683 -0.25 29.0625 C-0.23195312 28.18787109 -0.21390625 27.31324219 -0.1953125 26.41210938 C-0.14858353 24.27425892 -0.07685441 22.13697955 0 20 C-1.65 20 -3.3 20 -5 20 C-5 17.03 -5 14.06 -5 11 C-3.35 11 -1.7 11 0 11 C0 7.37 0 3.74 0 0 Z " fill="#000000" transform="translate(243,1)"/>
<path d="M0 0 C3.63 0 7.26 0 11 0 C14.7697319 8.84033603 18.21700687 17.75581974 21.50415039 26.78466797 C22.3223166 29.026903 23.15031693 31.26536038 23.97851562 33.50390625 C24.50320541 34.93988462 25.02731589 36.37607483 25.55078125 37.8125 C25.79758133 38.47604492 26.04438141 39.13958984 26.29866028 39.82324219 C27.49329469 43.13698576 28 45.41692974 28 49 C24.7 49 21.4 49 18 49 C16.68 46.03 15.36 43.06 14 40 C8.39 39.67 2.78 39.34 -3 39 C-3.99 42.3 -4.98 45.6 -6 49 C-9.3 49 -12.6 49 -16 49 C-15.45648175 42.61928866 -13.87641728 37.22471721 -11.62109375 31.25 C-11.28956802 30.35128174 -10.9580423 29.45256348 -10.61647034 28.52661133 C-9.56481611 25.68136493 -8.50137608 22.84069606 -7.4375 20 C-6.71861531 18.06148912 -6.0005083 16.12268965 -5.28320312 14.18359375 C-3.53111302 9.45234368 -1.7684456 4.72515976 0 0 Z M5 14 C3.35 19.28 1.7 24.56 0 30 C3.63 30 7.26 30 11 30 C10.38304511 27.7058862 9.75687956 25.41500322 9.125 23.125 C8.95097656 22.47402344 8.77695312 21.82304688 8.59765625 21.15234375 C7.50470421 17.1931563 7.50470421 17.1931563 5 14 Z " fill="#040000" transform="translate(16,14)"/>
<path d="M0 0 C5.30774511 3.62563317 6.97494838 6.83446985 8.19921875 12.99609375 C8.99157412 17.91138301 8.99157412 17.91138301 7.82421875 20.24609375 C-0.75578125 20.24609375 -9.33578125 20.24609375 -18.17578125 20.24609375 C-14.8999298 25.20287843 -14.8999298 25.20287843 -11.73828125 26.18359375 C-8.72706391 26.25703808 -6.85425455 25.5853304 -4.17578125 24.24609375 C-3.84578125 23.91609375 -3.51578125 23.58609375 -3.17578125 23.24609375 C-1.32290623 23.17382873 0.53255753 23.16228155 2.38671875 23.18359375 C3.39863281 23.19261719 4.41054688 23.20164062 5.453125 23.2109375 C6.23558594 23.22253906 7.01804687 23.23414062 7.82421875 23.24609375 C6.58598109 29.02453615 3.66411411 32.11139359 -1.17578125 35.24609375 C-7.24152976 37.23232905 -13.45039926 36.78286659 -19.28515625 34.359375 C-23.52798403 31.86101567 -26.17062275 28.02796564 -28.55078125 23.80859375 C-30.13947142 17.29496404 -29.5933822 11.05001958 -26.17578125 5.24609375 C-18.94248848 -2.82661818 -9.69355908 -5.50380859 0 0 Z M-16.17578125 9.24609375 C-16.50578125 10.23609375 -16.83578125 11.22609375 -17.17578125 12.24609375 C-12.55578125 12.24609375 -7.93578125 12.24609375 -3.17578125 12.24609375 C-4.8243495 8.12205902 -4.8243495 8.12205902 -8.17578125 6.24609375 C-11.80031394 6.24609375 -13.2549832 7.17078988 -16.17578125 9.24609375 Z " fill="#020000" transform="translate(314.17578125,13.75390625)"/>
<path d="M0 0 C1.21171875 -0.02578125 2.4234375 -0.0515625 3.671875 -0.078125 C7.64114861 0.28586952 9.92645383 1.06595538 13.25 3.25 C16.26950188 7.25096369 16.65633387 10.34769184 16.76171875 15.30078125 C16.77966995 15.95958786 16.79762115 16.61839447 16.81611633 17.29716492 C16.86996656 19.38554631 16.90403108 21.4737026 16.9375 23.5625 C16.9706957 24.9850572 17.00518744 26.40758479 17.04101562 27.83007812 C17.12567601 31.30316915 17.1926077 34.77633913 17.25 38.25 C15.83376784 38.30447047 14.41691809 38.34300508 13 38.375 C12.21109375 38.39820313 11.4221875 38.42140625 10.609375 38.4453125 C8.04268059 38.2328378 6.4583933 37.53654105 4.25 36.25 C3.26 36.91 2.27 37.57 1.25 38.25 C-4.33186475 38.94269894 -9.24477781 38.95070688 -14.375 36.5625 C-16.9436431 34.06145277 -18.01768408 32.74884275 -18.75 29.25 C-18.67613827 25.11374305 -18.29388243 22.94912654 -15.73828125 19.6640625 C-11.9373462 16.59350321 -8.72470133 15.96158287 -4 15.125 C-1.18616769 14.60874316 1.48140693 14.00453073 4.25 13.25 C4.58 12.26 4.91 11.27 5.25 10.25 C1.23195309 9.40901344 -1.76803543 9.19595055 -5.75 10.25 C-5.75 11.24 -5.75 12.23 -5.75 13.25 C-9.38 13.25 -13.01 13.25 -16.75 13.25 C-16.67430022 10.0706091 -16.38231963 7.94110312 -14.1953125 5.55078125 C-9.27761493 1.33706943 -6.6002662 0.08354767 0 0 Z M-1.375 22.75 C-2.37789062 23.0284375 -3.38078125 23.306875 -4.4140625 23.59375 C-5.18492187 23.8103125 -5.95578125 24.026875 -6.75 24.25 C-7.34070014 26.19603274 -7.34070014 26.19603274 -7.75 28.25 C-6.18058802 29.81941198 -4.60865006 29.4949847 -2.4375 29.5625 C0.90178041 29.52527872 1.97979263 29.43453186 4.8125 27.5 C6.60892618 25.13320269 6.60892618 25.13320269 6.25 21.25 C3.54063794 21.25 1.23281251 22.02223837 -1.375 22.75 Z " fill="#030000" transform="translate(137.75,24.75)"/>
<path d="M0 0 C2.92182239 2.92182239 4.01991668 5.30078512 5.25 9.25 C5.25 12.22 5.25 15.19 5.25 18.25 C-3.33 18.25 -11.91 18.25 -20.75 18.25 C-19.17107955 22.49889722 -19.17107955 22.49889722 -15.4375 23.625 C-11.5859641 24.27780269 -10.09783674 24.12084994 -6.75 22.25 C-6.42 21.92 -6.09 21.59 -5.75 21.25 C-4.06391034 21.17794489 -2.37499341 21.16613932 -0.6875 21.1875 C0.23160156 21.19652344 1.15070313 21.20554687 2.09765625 21.21484375 C2.80792969 21.22644531 3.51820313 21.23804687 4.25 21.25 C4.05346418 25.47552008 3.54778317 26.95221683 0.5 30 C-5.21155718 33.95415497 -9.85416756 35.1609879 -16.75 34.25 C-22.93740782 32.37127799 -27.18104896 28.57255328 -30.75 23.25 C-32.614319 17.65704301 -32.30739233 12.10797442 -30.625 6.5 C-27.82361824 1.64427162 -24.9314049 -1.72891685 -19.8125 -4.125 C-11.97968737 -5.72353319 -6.69878385 -4.26286245 0 0 Z M-19.75 7.25 C-20.08 8.24 -20.41 9.23 -20.75 10.25 C-15.8 10.25 -10.85 10.25 -5.75 10.25 C-8.09313057 5.13423722 -8.09313057 5.13423722 -11.625 4.25 C-15.31775952 4.25 -16.88732726 4.95986181 -19.75 7.25 Z " fill="#010000" transform="translate(232.75,15.75)"/>
<path d="M0 0 C3.63 0 7.26 0 11 0 C11.02464156 7.10245508 11.042832 14.20488551 11.05493164 21.30737305 C11.05997349 23.72567172 11.06680678 26.14396733 11.07543945 28.56225586 C11.08751157 32.02979283 11.09322963 35.49728966 11.09765625 38.96484375 C11.10281754 40.05337143 11.10797882 41.14189911 11.11329651 42.26341248 C11.11337204 43.26437454 11.11344757 44.26533661 11.11352539 45.29663086 C11.115746 46.18265488 11.11796661 47.06867889 11.12025452 47.98155212 C11 50 11 50 10 51 C8.50261876 51.0979057 7.00057108 51.12974864 5.5 51.125 C4.6853125 51.12757812 3.870625 51.13015625 3.03125 51.1328125 C1 51 1 51 0 50 C-0.09326716 48.43452952 -0.11745582 46.86487228 -0.11352539 45.29663086 C-0.11344986 44.29566879 -0.11337433 43.29470673 -0.11329651 42.26341248 C-0.10813522 41.1748848 -0.10297394 40.08635712 -0.09765625 38.96484375 C-0.0962413 37.85645645 -0.09482635 36.74806915 -0.09336853 35.60609436 C-0.08775033 32.04986931 -0.07519475 28.49370617 -0.0625 24.9375 C-0.05748734 22.53320403 -0.05292403 20.12890708 -0.04882812 17.72460938 C-0.03777499 11.81638223 -0.02049816 5.90820163 0 0 Z " fill="#020000" transform="translate(46,12)"/>
<path d="M0 0 C3.3 0 6.6 0 10 0 C10.33 0.99 10.66 1.98 11 3 C11.515625 2.505 12.03125 2.01 12.5625 1.5 C15.80680017 -0.49649241 18.26217334 -0.21564385 22 0 C22 3.3 22 6.6 22 10 C19.68880208 10.45572917 17.37760417 10.91145833 15.06640625 11.3671875 C14.38449219 11.57601563 13.70257813 11.78484375 13 12 C11.74161443 14.51677113 11.79181027 16.41293288 11.68359375 19.2265625 C11.64169922 20.2578125 11.59980469 21.2890625 11.55664062 22.3515625 C11.49766602 23.97191406 11.49766602 23.97191406 11.4375 25.625 C11.39431641 26.71296875 11.35113281 27.8009375 11.30664062 28.921875 C11.20035573 31.6144257 11.09965496 34.30719576 11 37 C7.37 37 3.74 37 0 37 C0 24.79 0 12.58 0 0 Z " fill="#000000" transform="translate(326,12)"/>
</svg>
